<svg xmlns="http://www.w3.org/2000/svg" width="647.17" height="750.98"><defs><clipPath id="A"><path d="M0 790.89h900V0H0z"/></clipPath></defs><g clip-path="url(#A)" transform="matrix(1.3333 0 0 -1.3333 -278.0517 902.5831)"><path d="M649.84 676.94H252.62c-32.2 0-44.08-11.88-44.08-44.09V244.17a100 100 0 0 1 .47-10.17c.73-7.03.87-13.84 7.41-21.6.64-.76 7.31-5.73 7.31-5.73 3.59-1.76 6.04-3.06 10.09-4.69l195.6-81.95c10.15-4.65 14.4-6.47 21.77-6.32h0 .03.03 0c7.38-.15 11.62 1.67 21.78 6.32l195.6 81.95c4.05 1.63 6.5 2.93 10.09 4.69 0 0 6.68 4.97 7.31 5.73 6.54 7.76 6.68 14.57 7.41 21.6a100 100 0 0 1 .47 10.17v388.68c0 32.21-11.88 44.09-44.08 44.09" fill="#2f2d2e" fill-rule="evenodd"/><g fill="#fff"><path d="M623.23 286.18l-.09-.9-.09-.99-.18-.9-.27-.9-.17-.81-.27-.9-.36-.81-.36-.72-.35-.81-.45-.72-.45-.72-.53-.72-.45-.72-.53-.63-.63-.63-.53-.54-.72-.63-.62-.54-.72-.54-.71-.44-.71-.54-.81-.45-.8-.36-.8-.45-.9-.36-.89-.36-.89-.27-.89-.27-.81-.27-.89-.18-.8-.18-.8-.18-.9-.18-.89-.09-.8-.09-.9-.09-.98-.09-.89-.09h-.89-.98-.99-.89l-.89.09h-.98l-.89.09-.9.09-.98.09-.89.18-.89.09-.9.18-.89.18-.89.18-.89.18-.9.27-.8.18-.89.27-.89.27-.81.36-.89.27-.8.27-.89.36-.81.36-.8.36-.8.44-.81.36-.8.45-.71.45-.81.45-.71.45-.72.45-.71.54-.71.54-.72.54-.71.54-.63.54-.71.63.54.72.62.63.54.72.62.72.54.63.53.72.63.72.53.63.63.72.53.63.63.72.53.72.54.63.62.72.54.72.62.63.54.72.71-.54.8-.54.72-.54.8-.54.72-.45.8-.54.71-.45.81-.36.71-.45.8-.36.81-.36.8-.36.8-.27.81-.36.89-.27.89-.27.8-.27.9-.18.89-.18.89-.18.98-.09.9-.18h.89l.98-.09h.89 1.07l.98.09.9.18.8.18.8.18.72.27.62.36.72.54.53.63.36.72.27.81.09.9v.18l-.09 1.08-.36.9-.45.63-.62.54-.72.54-.71.36-.8.36-.9.36-1.07.45-.62.18-.71.18-.81.27-.8.18-.89.27-.9.18-.98.27-.89.18-.98.27-.89.18-.9.27-.89.18-.89.27-.81.27-.89.18-.8.27-.8.27-.81.27-.98.36-.89.36-.89.36-.9.36-.8.45-.89.45-.72.45-.8.45-.71.54-.72.45-.62.54-.63.63-.62.63-.54.63-.53.63-.45.63-.44.72-.45.81-.36.62-.27.72-.26.81-.27.72-.18.9-.18.81-.09.9-.09.9-.09.99v.99.18.9l.09.9.09.81.09.9.18.81.18.81.27.81.18.81.35.81.36.81.36.81.44.81.45.81.53.72.54.72.62.72.63.63.62.72.72.63.62.45.72.54.71.54.71.45.81.45.8.36.8.45.81.36.89.27.89.36.81.27.71.18.8.18.81.18.89.18.8.18.89.09.9.09.89.09.89.09h.89.99.98.98l.98-.09.98-.09h.89l.99-.09.89-.18.98-.09.89-.18.81-.18.89-.18.89-.18.8-.18.9-.27.8-.27.8-.18.9-.36.8-.27.8-.36.8-.36.9-.36.8-.45.71-.36.81-.45.8-.45.71-.45.81-.54.71-.45.72-.54.71-.54.71-.54-.53-.72-.45-.72-.53-.72-.54-.72-.53-.81-.45-.72-.54-.72-.53-.72-.45-.72-.53-.72-.54-.72-.45-.72-.53-.81-.54-.72-.53-.72-.45-.72-.53-.72-.72.54-.8.45-.71.45-.72.54-.8.36-.72.45-.8.36-.71.36-.81.36-.71.36-.8.27-.72.36-.98.27-.89.27-.89.27-.9.18-.89.18-.89.18-.89.09-.9.09-.8.09h-.89-1.07l-.98-.18-.9-.18-.8-.18-.71-.36-.63-.36-.8-.72-.54-.81-.35-.81-.09-.9v-.18l.09-1.16.44-.99.36-.54.62-.63.81-.45.71-.45.89-.36.99-.36 1.07-.36.71-.18.71-.27.81-.18.8-.27.89-.18.99-.27.98-.27.98-.27.98-.18.89-.27.98-.27.9-.18.89-.27.89-.27.8-.27.9-.27.8-.27.8-.27.99-.35.89-.45.89-.36.89-.45.81-.45.8-.45.71-.45.72-.54.71-.45.71-.63.72-.63.62-.72.63-.63.53-.72.54-.81.44-.72.45-.81.36-.72.27-.81.26-.81.18-.81.18-.9.18-.9.09-.9.09-.99v-.99-.18-.99zm-62.59-17.93h-.9-.89-.89-.89-.9-.89-.89-.89-.99-.89-.89-.89-.9-.89-.89-.89-.9-.89-.89-.89-.89-.9-.89-.89-.89-.9-.89-.89-.98-.9-.89-.89-.89-.9-.89-.89-.89-.9-.89-.89-.89-.9-.89-.89-.89-.9-.89-.98-.89-.89-.9-.89-.89-.89-.9-.89-.89v.9.9.9.89.9.9.9.9.9.9.9.9.9.9.9.9.9.9.81.9.9.9.9.9.9.9.9.9.9.9.9.9.9.9.9.9.9.9.9.9.9.89.9.9.9.9.9.9.9.9.9.9.9.9.81.9.9.9.9.9.9.9.9.9.9.9.9.9.9.9.9.9.9h.89.89.9.89.89.89.9.89.89.89.9.89.89.89.81.89.89.89.9.89.89.89.9.89.89.89.9.89.89.89.9.89.89.89.89.9.89.89.89.9.89.89.89.81.89.89.89.9.89.89.89.9.89.89.89.9.89.89v-.9-.81-.9-.9-.9-.81-.9-.9-.81-.9-.9-.81-.9-.9-.9-.81-.9h-.89-.89-.9-.89-.89-.89-.81-.89-.89-.89-.9-.89-.89-.89-.9-.89-.89-.89-.9-.8-.89-.89-.9-.89-.89-.89-.9-.89-.89-.89-.9-.89-.8-.89-.9-.89-.89-.89-.9v-.9-.9-.9-.9-.9-.81-.9-.9-.9-.9-.9-.9h.9.89.89.89.9.89.89.89.81.89.89.89.9.89.89.89.9.89.89.89.9.89.89.89.9.89.8.89.9.89.89.89.9.89.89v-.9-.81-.89-.9-.81-.9-.9-.81-.9-.9-.9-.81-.9-.9-.81-.9h-.89-.89-.9-.89-.89-.89-.9-.89-.8-.89-.9-.89-.89-.89-.9-.89-.89-.89-.9-.89-.89-.89-.9-.89-.89-.89-.81-.89-.89-.89-.9-.89-.89-.89-.9v-.9-.99-.9-.9-.99-.9-.9-.99-.9-.9-.99-.9h.9.89.89.89.9.89.89.89.9.98.89.89.9.89.89.89.9.89.89.89.89.9.89.89.89.9.89.89.89.99.89.89.89.9.89.89.89.9.89v-.9-.81-.9-.9-.9-.81-.9-.9-.81-.9-.9-.81-.89-.9-.9-.81-.9zm-65.21 0h-.89-.89-.99-.89-.89-.89-.9-.89-.98-.89-.89-.9-.89-.89-.98-.9-.89-.89v.9.9.9.9.9.9.9.9.9.9.9.9.9.9.9.9.9.9.9.9.9.9.9.9.9.9.9.9.9.9.9.9.9.9.9.9.9.9.9.9.9.9.9l-.45-.72-.53-.81-.45-.72-.53-.72-.45-.81-.54-.72-.44-.72-.45-.81-.53-.72-.45-.72-.54-.72-.44-.81-.54-.72-.44-.72-.45-.81-.54-.72-.44-.72-.54-.81-.44-.72-.54-.72-.44-.81-.45-.72-.54-.72-.44-.81-.54-.72-.44-.72-.54-.72-.45-.81-.44-.72-.54-.72-.44-.81-.54-.72-.45-.72-.53-.81-.45-.72h-.35l-.54.81-.45.72-.53.81-.45.72-.53.81-.45.72-.53.81-.45.72-.54.81-.44.72-.54.81-.44.72-.54.81-.45.72-.53.81-.45.72-.53.81-.54.72-.45.81-.53.72-.45.81-.53.72-.45.81-.53.72-.45.81-.54.72-.44.81-.54.72-.44.81-.54.72-.45.81-.53.72-.45.81-.53.72v-.9-.9-.9-.9-.9-.9-.9-.9-.9-.9-.81-.9-.9-.9-.9-.9-.9-.9-.9-.9-.9-.9-.9-.9-.9-.9-.9-.9-.9-.9-.9-.9-.81-.9-.9-.9-.9-.9-.9-.9-.9-.9-.9h-.89-.9-.89-.89-.89-.9-.89-.89-.89-.9-.89-.89-.89-.9-.89-.89-.89-.9-.89v.9.9.9.89.9.9.9.9.9.9.9.9.9.9.9.9.9.9.81.9.9.9.9.9.9.9.9.9.9.9.9.9.9.9.9.9.9.9.9.9.9.89.9.9.9.9.9.9.9.9.9.9.9.9.81.9.9.9.9.9.9.9.9.9.9.9.9.9.9.9.9.9.9h.89.9.8.89.89.9.8.89.9.89.8.89.9.89.8.89.9.89.8.89.9l.44-.72.45-.81.53-.71.45-.81.45-.72.44-.81.45-.71.53-.81.45-.72.45-.72.44-.8.45-.72.53-.81.45-.72.45-.8.44-.72.54-.72.45-.8.44-.72.45-.81.44-.72.54-.8.45-.72.44-.81.45-.71.44-.72.54-.81.45-.72.44-.81.45-.71.44-.81.54-.72.45-.8.44-.72.45.72.45.8.53.72.45.81.44.71.45.81.53.72.45.81.45.72.44.71.54.81.44.72.45.8.45.72.53.81.45.72.45.8.44.72.45.72.53.8.45.72.45.81.44.72.54.8.44.72.45.72.45.81.53.71.45.81.44.72.45.81.54.71.44.81.45.72h.89.89.81.89.89.89.81.89.89.89.81.89.89.89.81.89.89.89.81.89.89v-.9-.9-.9-.9-.9-.9-.9-.9-.9-.9-.9-.9-.9-.9-.9-.9-.9-.9-.81-.9-.9-.9-.9-.9-.9-.9-.9-.9-.9-.9-.9-.89-.9-.9-.9-.9-.9-.9-.9-.9-.9-.9-.9-.9-.9-.9-.9-.9-.9-.9-.9-.9-.9-.9-.81-.9-.9-.9-.9-.9-.9-.9-.9-.9-.9-.9-.9-.9-.9-.89-.9-.9-.9zm-103.56 26.89l-.27.81-.35.9-.36.81-.27.81-.35.81-.36.9-.27.81-.36.81-.35.81-.27.81-.36.9-.26.81-.36.81-.36.81-.27.81-.35.9-.36.81-.27.81-.36.81-.35.9-.27.81-.36.81-.35-.81-.27-.81-.36-.9-.36-.81-.26-.81-.36-.81-.36-.9-.35-.81-.27-.81-.36-.81-.36-.81-.26-.9-.36-.81-.36-.81-.27-.81-.35-.81-.36-.9-.36-.81-.26-.81-.36-.81-.36-.9-.27-.81-.35-.81h.89.89.89.9.89.89.89.9.8.89.9.89.89.89.89.9.89zm28.03-26.89h-.9-.8-.89-.9-.89-.89-.8-.9-.89-.89-.89-.9-.8-.89-.89-.9-.89-.8-.89-.9l-.35.81-.27.81-.36.81-.36.9-.26.8-.36.81-.36.81-.26.81-.36.81-.36.81-.27.81-.35.9-.36.81-.27.81-.36.81h-.89-.89-.89-.89-.81-.89-.89-.9-.89-.89-.89-.89-.9-.89-.8-.9-.89-.89-.89-.9-.89-.89-.89-.89-.81-.89-.89-.9-.89l-.35-.81-.27-.81-.36-.81-.36-.9-.26-.81-.36-.81-.36-.81-.27-.81-.35-.81-.36-.81-.27-.8-.35-.9-.36-.81-.27-.81-.36-.81h-.89-.89-.89-.9-.89-.98-.89-.89-.9-.89-.89-.89-.9-.89-.89-.98-.9-.89-.89-.89l.35.81.36.81.36.81.35.9.27.8.36.81.36.81.35.81.36.81.36.9.35.81.36.81.27.81.36.81.35.81.36.9.36.81.35.81.36.81.36.81.27.81.35.9.36.81.36.81.35.81.36.81.36.81.35.9.27.81.36.81.36.81.35.81.36.81.36.9.35.81.36.81.27.81.36.81.35.81.36.9.36.81.35.81.36.81.36.81.27.81.35.8.36.9.36.81.35.81.36.81.36.81.35.81.27.9.36.81.36.81.35.81.36.81.36.81.35.9.36.81.27.81.36.81.35.81.36.81.36.9.35.81.36.81.36.81.26.81.36.81.36.9.36.81.35.81.36.81.36.81.35.81.27.9.36.81.36.81.35.81h.89.81.89.89.9.8.89.89.9.8.89.89.9.8.89.89.9.8.89l.36-.81.36-.81.35-.81.36-.9.27-.81.35-.81.36-.81.36-.81.36-.81.35-.9.36-.81.36-.81.26-.81.36-.81.36-.81.36-.9.35-.81.36-.81.36-.81.35-.81.27-.81.36-.9.35-.81.36-.81.36-.81.36-.81.35-.81.36-.9.27-.81.35-.81.36-.81.36-.81.36-.81.35-.9.36-.8.36-.81.26-.81.36-.81.36-.81.35-.81.36-.9.36-.81.36-.81.35-.81.27-.81.36-.81.35-.9.36-.81.36-.81.36-.81.35-.81.36-.81.27-.9.35-.81.36-.81.36-.81.35-.81.36-.81.36-.9.36-.81.26-.81.36-.81.36-.81.35-.81.36-.9.36-.81.36-.81.35-.81.27-.81.36-.81.35-.9.36-.81.36-.81.35-.81.36-.81.36-.8.27-.9.35-.81.36-.81.36-.81zm-78.19 8.33l-.72-.54-.62-.45-.72-.54-.71-.45-.71-.54-.72-.45-.71-.45-.81-.45-.8-.45-.8-.45-.81-.35-.8-.45-.89-.36-.8-.36-.9-.36-.8-.36-.8-.27-.81-.27-.8-.27-.89-.27-.8-.27-.9-.18-.8-.18-.89-.18-.9-.18-.89-.09-.98-.09-.89-.09-.98-.09-.9-.09-.98-.09h-.98-.98-.98-.9l-.89.09-.98.09-.89.09-.89.09-.9.09-.89.18-.89.18-.8.18-.9.18-.8.27-.89.18-.81.27-.8.36-.8.27-.89.36-.81.36-.8.36-.8.36-.81.45-.71.44-.8.45-.72.45-.71.45-.72.54-.71.54-.71.54-.63.54-.62.54-.63.63-.62.54-.63.63-.62.63-.54.63-.53.72-.54.63-.45.72-.53.72-.45.72-.44.72-.45.81-.45.72-.35.81-.36.81-.36.81-.35.81-.27.72-.36.81-.18.81-.26.81-.18.9-.27.81-.18.9-.09.81-.18.9-.09.81-.09.9-.08.9-.09.9v.99.9.18.9l.09.99v.9l.08.9.09.99.18.89.09.9.18.81.27.9.18.9.26.81.27.9.27.81.36.9.35.81.36.81.36.81.35.81.45.81.45.72.44.72.45.72.45.72.53.72.54.72.53.72.54.63.62.63.54.63.62.63.63.63.62.54.72.63.62.54.71.54.72.45.71.54.72.45.71.45.8.45.81.45.8.45.8.36.81.36.89.45.71.27.89.27.81.36.8.18.8.27.9.18.8.27.89.18.89.09.9.18.89.09.89.09.89.09.9.09h.98.89.98.98l.99-.09.98-.09h.89l.89-.09.98-.18.81-.09.89-.18.89-.18.81-.18.8-.18.8-.18.81-.27.8-.18.71-.27.81-.27.8-.36.8-.36.81-.36.8-.45.8-.36.72-.45.8-.45.71-.45.81-.45.71-.54.71-.45.72-.54.71-.54.72-.63.71-.54-.54-.72-.62-.63-.54-.72-.62-.72-.54-.72-.53-.63-.63-.72-.53-.72-.54-.63-.62-.72-.54-.72-.62-.72-.54-.63-.53-.72-.63-.72-.53-.72-.63-.63-.53-.72-.72.54-.71.63-.72.45-.71.54-.71.45-.72.45-.71.45-.8.45-.72.36-.71.36-.72.27-.8.27-.8.27-.81.18-.89.18-.89.18-.89.09-.98.09-.99.09h-.98-.89l-.89-.09-.81-.09-.89-.18-.8-.18-.81-.27-.8-.27-.8-.36-.8-.36-.72-.45-.71-.45-.72-.45-.62-.54-.63-.54-.62-.54-.54-.63-.62-.63-.54-.72-.44-.63-.45-.72-.44-.81-.45-.72-.36-.81-.27-.81-.35-.81-.27-.9-.18-.89-.18-.81-.18-.99-.09-.9-.08-.9v-.99-.18-.9l.08-.9.09-.81.09-.9.18-.81.18-.81.18-.81.27-.81.26-.72.36-.9.36-.81.44-.81.45-.72.45-.72.53-.72.54-.63.62-.63.54-.63.62-.54.72-.54.71-.54.71-.45.72-.45.8-.36.8-.36.81-.36.89-.27.89-.27.9-.18.89-.18.89-.09.98-.09h.98 1.07l.99.09.98.09.89.09.89.18.9.18.89.27.8.18.8.36.72.36.8.36.63.36.71.45v.9.9.9.9.99.9.9.9.9h-.89-.81-.89-.89-.89-.81-.89-.89-.89-.81-.89-.89-.89-.81-.89v.9.81.9.9.9.81.9.9.9.81.9.9.9.81.89h.89.9.89.89.89.89.9.89.89.89.9.89.89.89.9.89.89.89.9.89.89.89.9.89.89.89.9.89.89.89.9.89.89v-.89-.9-.9-.81-.9-.9-.9-.9-.9-.81-.9-.9-.9-.9-.9-.9-.81-.9-.9-.9-.9-.9-.9-.81-.9-.9-.9-.9-.9-.81-.9-.9-.9zm-28.72 204.58h38.68v29.92h-38.68v61.09h40.22v29.92h-73.07V386.14h73.68v29.92h-40.83zm277.08-6.48v-48.74c0-8.64-3.99-12.65-12.28-12.65h-6.14c-8.6 0-12.59 4.01-12.59 12.65V562.3c0 8.64 3.99 12.65 12.59 12.65h5.53c8.29 0 12.28-4.01 12.28-12.65v-42.27h32.23v44.12c0 26.84-12.89 39.79-39.6 39.79h-15.97c-26.71 0-39.91-13.26-39.91-40.11V424.4c0-26.84 13.21-40.11 39.91-40.11h16.27c26.71 0 39.91 13.26 39.91 40.11v50.28zM476 386.14h32.85v215.95H476zm-47.67 120.01c0-8.64-3.99-12.65-12.28-12.65h-13.51v79.6h13.51c8.29 0 12.28-4.01 12.28-12.65zm-7.06 95.94h-51.58V386.14h32.85v78.36h18.73c26.71 0 39.91 13.26 39.91 40.1v57.38c0 26.84-13.2 40.11-39.91 40.11"/><path d="M357.64 190.87h188.05l-95.99-31.65z" fill-rule="evenodd"/></g></g></svg>
