<svg xmlns="http://www.w3.org/2000/svg" xml:space="preserve" width="647.2" height="751"><defs><clipPath id="a" clipPathUnits="userSpaceOnUse"><path d="M0 790.9h900V0H0Z"/></clipPath></defs><g clip-path="url(#a)" transform="matrix(1.333 0 0 -1.333 -278 902.6)"><path d="M0 0h-397.2c-32.2 0-44.1-11.9-44.1-44v-388.8q0-5.4.5-10.1c.7-7 .8-13.9 7.4-21.6.6-.8 7.3-5.8 7.3-5.8 3.6-1.7 6-3 10-4.7l195.7-81.9c10.1-4.7 14.4-6.5 21.8-6.3 7.4-.2 11.6 1.6 21.8 6.3l195.6 82c4 1.6 6.5 2.9 10 4.6 0 0 6.8 5 7.4 5.8 6.5 7.7 6.7 14.5 7.4 21.6q.5 4.7.5 10.1V-44C44-11.9 32 0 0 0" style="fill:#2f2d2e;fill-opacity:1;fill-rule:evenodd;stroke:none" transform="translate(649.8 677)"/><path d="M0 0v-.9l-.2-1-.2-.9-.2-.9-.2-.8-.3-.9-.3-.8-.4-.7-.3-.8-.5-.7-.4-.7-.6-.8-.4-.7-.6-.6-.6-.6-.5-.6-.7-.6-.7-.5-.7-.6-.7-.4-.7-.6-.8-.4-.8-.4-.8-.4-.9-.4-.9-.3-.9-.3-.9-.3-.8-.2-.9-.2-.8-.2-.8-.2-.9-.2h-.9l-.8-.1-.9-.1-1-.1-.8-.1h-5.7l-.8.2h-1l-1 .2-.8.1-.9.1-.9.2-.9.2-.9.2-.9.1-.9.3-.8.2-.9.3-.9.2-.8.4-.9.3-.8.2-.8.4-.9.3-.8.4-.8.4-.8.4-.8.5-.7.4-.8.4-.7.5-.7.4-.7.6-.7.5-.8.6-.7.5-.6.5-.7.7.5.7.7.6.5.7.6.7.6.7.5.7.6.7.5.6.7.7.5.7.6.7.6.7.5.6.6.8.6.7.6.6.5.7.7-.5.8-.6.8-.5.8-.5.7-.5.8-.5.7-.5.8-.3.7-.5.8-.3.8-.4.8-.4.8-.2.8-.4 1-.2.8-.3.8-.3 1-.2.8-.1.9-.2 1-.1.9-.2h4.8l.9.2.8.2.8.1.7.3.6.4.7.5.6.6.3.8.3.8v2.1l-.4 1-.4.5-.6.6-.8.5-.7.4-.8.3-.9.4-1 .4-.7.2-.7.2-.8.3-.8.1-.9.3-.9.2-1 .3-.8.1-1 .3-1 .2-.8.3-.9.1-.9.3-.8.3-.9.2-.8.2-.8.3-.8.3-1 .3-.9.4-.9.3-.9.4-.8.4-.8.5-.8.4-.8.5-.7.5-.7.5-.6.5-.6.6-.7.7-.5.6-.5.6-.5.7-.4.7-.5.8-.3.6-.3.7-.3.8-.2.7-.2 1-.2.7v1l-.2.8v4l.1.8.1.9.2.8.2.8.2.8.2.8.4.8.3.8.4.8.4.8.5.8.5.8.5.7.7.7.6.6.6.7.7.7.7.4.7.6.7.5.7.4.8.5.8.3.8.5.8.4 1 .2.8.4.8.3.7.1.8.2.8.2 1 .2.7.1 1 .1.8.1.9.1.9.1h4.9l.9-.2h1.9l.9-.2 1-.1.8-.2.8-.2 1-.2.8-.1.8-.2 1-.3.7-.3.8-.1 1-.4.7-.3.8-.3.8-.4 1-.3.7-.5.7-.4.8-.4.8-.5.8-.4.8-.5.7-.5.7-.5.7-.6.7-.5-.5-.7-.5-.7-.5-.8-.5-.7-.6-.8-.4-.7-.6-.7-.5-.7-.4-.7-.6-.8-.5-.7-.5-.7-.5-.8-.5-.7-.6-.7-.4-.8-.5-.7-.8.6-.8.4-.7.5-.7.5-.8.4-.7.4-.8.4-.7.3-.8.4-.7.3-.8.3-.8.4-1 .2-.8.3-1 .3-.8.2-1 .1-.8.2-.9.1h-.9l-.8.2h-1.9l-1-.2-1-.2-.7-.2-.7-.3-.7-.4-.8-.7-.5-.8-.4-.8v-2.2l.5-1 .3-.6.7-.6.8-.4.7-.5.9-.4 1-.3 1-.4.7-.1.8-.3.8-.2.8-.3.8-.1 1-.3 1-.3 1-.3 1-.1.9-.3 1-.3.8-.1 1-.3.8-.3.8-.3 1-.2.7-.3.8-.3 1-.3 1-.5.8-.3.9-.5.8-.4.8-.5.7-.4.7-.6.7-.4.8-.6.7-.7.6-.7.6-.6.6-.7.5-.8.4-.7.5-.8.3-.8.3-.8.3-.8.2-.8.1-.9L0 5l.1-.9V1zm-62.6-18h-51.2v65.4H-62v-15h-34.6V21.8h31.1V8h-31.1V-3h35v-15zm-65.2 0h-16.4v38.7l-.4-.8-.5-.8-.5-.7-.5-.7-.4-.8-.6-.7-.4-.7-.5-.9-.5-.7-.5-.7-.5-.7-.4-.8-.6-.7-.4-.8-.5-.8-.5-.7-.5-.7-.5-.8-.4-.7-.6-.7-.4-.9-.5-.7-.5-.7-.4-.8-.6-.7-.4-.7-.6-.8-.4-.8-.5-.7-.5-.7-.4-.8-.6-.7-.4-.7-.6-.9-.4-.7h-.4l-.5.8-.4.8-.6.8-.4.7-.6.8-.4.7-.5.8-.5.7-.5.8-.5.8-.5.8-.4.7-.6.8-.4.7-.6.8-.4.7-.5.9-.6.7-.4.8-.6.7-.4.8-.5.7-.5.8-.5.8-.5.8-.5.7-.5.8-.5.7-.4.8-.6.7-.4.8-.6.8-.4.8-.5.7V-18h-17v65.3h18.3l.4-.8.5-.8.5-.7.5-.8.4-.7.5-.8.4-.7.5-.9.5-.7.4-.7.5-.8.4-.7.6-.8.4-.7.5-.8.4-.8.5-.7.5-.8.4-.7.5-.8.4-.7.6-.8.4-.7.5-.8.4-.7.4-.8.6-.8.4-.7.5-.8.4-.7.5-.8.5-.7.5-.8.4-.8.4.8.5.8.5.7.5.8.4.7.5.8.5.7.4.8.5.8.4.7.6.8.4.7.5.8.4.7.5.8.5.7.4.8.5.7.4.8.6.8.4.7.5.8.4.7.5.8.5.7.4.7.5.9.5.7.5.8.4.7.5.8.5.7.4.8.5.7h18.3V-18zM-231.4 9l-.2.8-.4.9-.3.8-.3.8-.4.8-.3.9-.3.8-.4.8-.3.8-.3.8-.3 1-.3.7-.4.9-.3.8-.3.8-.3.9-.4.8-.3.8-.3.8-.4.9-.2.8-.4.8-.4-.8-.2-.8-.4-1-.3-.7-.3-.8-.4-.8-.3-1-.4-.7-.3-.9-.3-.8-.4-.8-.2-.9-.4-.8-.3-.8-.3-.8-.4-.8-.3-.9-.4-.8-.3-.8-.3-.8-.4-1-.2-.7-.4-.8h15.1zm28-27h-17.4l-.4.9-.3.8-.3.8-.4.9-.2.8-.4.8-.4.8-.2.8-.4.8-.3.8-.3.8-.4 1-.3.7-.3.8-.3.9h-25.7l-.3-.9-.3-.8-.3-.8-.4-.9-.3-.8-.3-.8-.4-.8-.2-.8-.4-.8-.4-.8-.2-.8-.4-.9-.3-.8-.3-.8-.4-.8h-18l.4.8.3.8.4.8.3.9.3.8.4.8.3.8.4.8.3.8.4 1 .3.7.4.8.3.8.3.8.4.9.3.8.4.9.3.8.4.8.4.8.2.8.4.9.3.8.4.8.4.8.3.8.4.8.3 1 .3.7.4.8.3.8.4.8.3.8.4 1 .3.7.4.9.3.8.3.8.4.8.3.9.4.8.3.8.4.8.4.8.2.8.4.8.3 1 .4.7.4.8.3.8.4.8.3.8.3 1 .4.7.3.8.4.9.3.8.4.8.3.9.4.8.3.8.3.8.4.8.3.8.4.9.3.8.4.8.4.8.2.8.4.8.3 1 .4.7.4.8.3.8.4.9.3.8.3.9.4.8.3.8.4.8h16.5l.3-.8.4-.8.4-.8.3-1 .3-.7.3-.9.4-.8.4-.8.3-.8.4-.9.3-.8.4-.8.2-.8.4-.8.4-.8.3-.9.4-.8.3-.8.4-.8.3-.8.3-.8.4-1 .3-.7.4-.8.3-.9.4-.8.4-.8.3-.9.3-.8.3-.8.4-.8.4-.8.3-.8.4-.9.3-.8.4-.8.2-.8.4-.8.4-.8.3-.8.4-1 .3-.7.4-.8.3-.8.3-.9.4-.8.3-.9.4-.8.3-.8.4-.8.4-.8.3-.8.3-.9.3-.8.4-.8.4-.8.3-.8.4-.8.3-1 .4-.7.2-.8.4-.8.4-.8.3-.9.4-.8.3-.9.4-.8.3-.8.3-.8.4-.8.3-.9.4-.8.3-.8.4-.8.4-.8.3-.8.3-.9.3-.8.4-.8.4-.8zm-78.1 8.4-.7-.5-.7-.5-.7-.5-.7-.5-.7-.5-.7-.5-.7-.4-.8-.4-.8-.5-.9-.4-.8-.4-.8-.4-.8-.4-.9-.4-.8-.3-.8-.4-.9-.2-.8-.3-.8-.3-.9-.3-.8-.2-.8-.2-.9-.2-.8-.2-1-.1-.8-.1-1-.1-.9-.1-1-.1h-.9l-1-.2h-3.8l-.9.1-1 .1h-.9l-.9.2h-.9l-.8.2-1 .2-.7.2-1 .2-.7.3-1 .1-.7.3-.8.4-.8.2-1 .4-.7.3-.8.4-.8.4-.8.4-.8.5-.8.4-.7.5-.7.4-.7.5-.7.6-.7.5-.7.6-.6.5-.6.6-.6.6-.7.6-.6.6-.5.6-.5.8-.6.6-.4.7-.6.7-.4.7-.5.8-.4.8-.5.7-.3.8-.4.8-.3.8-.4.8-.2.7-.4.8-.2.8-.2.8-.2 1-.3.7-.2 1v.7l-.2 1-.1.8-.1.8-.1 1-.1.8v4.9l.2.9v1l.2.9.1.9.2.8.3.9.2.9.2.8.3.9.3.8.3.9.4.8.3.8.4.8.3.8.5.8.4.7.5.7.4.7.5.8.5.7.6.7.5.7.5.6.6.7.6.6.6.6.6.7.7.5.7.6.6.6.7.5.7.4.7.6.8.4.7.5.8.4.8.5.8.4.8.4.8.3.9.5.7.3.9.2.8.4.8.2.8.2.9.2.8.3.9.2h.9l.9.2.9.1.8.1 1 .1h7.5l1-.2.9-.2h.8l.9-.2.9-.2.8-.2.8-.2.8-.1.8-.3.8-.2.7-.3.8-.2.8-.4.8-.4.8-.3.8-.5.8-.3.8-.5.8-.4.7-.5.8-.4.7-.5.7-.5.7-.5.7-.6.7-.6.8-.5-.6-.8-.6-.6-.5-.7-.7-.7-.5-.7-.5-.7-.7-.7-.5-.7-.5-.6-.7-.7-.5-.8-.6-.7-.5-.6-.6-.7-.6-.7-.5-.8-.7-.6-.5-.7-.7.5-.7.7-.7.4-.8.6-.7.4-.7.5-.7.4-.8.4-.7.4-.7.4-.7.2-.9.3-.8.3-.8.1-.9.2-.8.2-1 .1h-1l-.9.2h-1.9l-.9-.1-.8-.1-.9-.2-.8-.2-.8-.2-.8-.3-.8-.4-.8-.3-.7-.5-.7-.4-.7-.5-.6-.5-.7-.5-.6-.6-.5-.6-.7-.6-.5-.7-.4-.7-.5-.7-.4-.8-.5-.7-.3-.8-.3-.8-.4-.8-.2-1-.2-.8-.2-.8-.2-1v-1l-.1-.8v-3l.1-.8.1-.9.2-.8.2-.8.2-.8.2-.8.3-.7.4-1 .3-.7.5-.8.4-.7.5-.8.5-.7.5-.6.6-.6.6-.7.6-.5.7-.5.7-.6.7-.4.8-.5.8-.3.8-.4.8-.3.9-.3.9-.3.9-.2.8-.1 1-.1 1-.1h2.9l1 .2h1l.8.2 1 .2.8.3.8.2.8.3.7.4.8.3.7.4.7.4V7h-13.1v13h29.5V-9.1z" style="fill:#fff;fill-opacity:1;fill-rule:nonzero;stroke:none" transform="translate(623.2 286.2)"/><path d="M0 0h38.7v30H0v61h40.2v30h-73V-95h73.6v29.9H0z" style="fill:#fff;fill-opacity:1;fill-rule:nonzero;stroke:none" transform="translate(313 481.2)"/><path d="M0 0v-48.7q0-12.9-12.3-12.7h-6.1q-12.8-.2-12.6 12.7V87.6q-.2 12.9 12.6 12.7h5.5q12.4.2 12.3-12.7V45.3h32.2v44.2c0 26.8-12.9 39.8-39.6 39.8h-16q-40 0-39.9-40.1V-50.3q-.1-40.1 40-40h16.2q40-.1 40 40V0z" style="fill:#fff;fill-opacity:1;fill-rule:nonzero;stroke:none" transform="translate(590 474.7)"/><path d="M476 386.1h32.8v216H476z" style="fill:#fff;fill-opacity:1;fill-rule:nonzero;stroke:none"/><path d="M0 0q0-12.8-12.3-12.7h-13.5V67h13.5Q.1 67 0 54.3Zm-7 96h-51.6v-216h32.8v78.4H-7q40.1-.1 40 40v57.4Q33 96-7.1 96" style="fill:#fff;fill-opacity:1;fill-rule:nonzero;stroke:none" transform="translate(428.3 506.1)"/><path d="M0 0h188L92-31.7Z" style="fill:#fff;fill-opacity:1;fill-rule:evenodd;stroke:none" transform="translate(357.6 190.9)"/></g></svg>